Normalized EMG Linear Envelopes
nRows=43
nColumns=17

endheader
time	        VM	        VL	        RF	       GRA	        TA	   ADDLONG	   SEMIMEM	      BFLH	        GM	        GL	       TFL	   GLUTMAX	   GLUTMED	      PIRI	    OBTINT	        QF	
2.645	  0.487730	  0.510771	  0.211598	  0.300502	  0.113177	  0.428810	  0.335035	  0.179600	  0.166372	  0.120639	  0.130908	  0.186630	  0.278187	  0.287106	  0.259377	  0.455005	
2.6455	  0.489979	  0.514308	  0.214229	  0.298952	  0.114016	  0.430934	  0.332543	  0.177430	  0.164473	  0.120587	  0.132374	  0.186619	  0.278151	  0.287871	  0.258257	  0.453852	
2.646	  0.492177	  0.517810	  0.216850	  0.297473	  0.114857	  0.433032	  0.330142	  0.175293	  0.162607	  0.120559	  0.133839	  0.186562	  0.278051	  0.288625	  0.257116	  0.452660	
2.6465	  0.494322	  0.521275	  0.219459	  0.296062	  0.115702	  0.435103	  0.327835	  0.173188	  0.160776	  0.120557	  0.135302	  0.186458	  0.277889	  0.289370	  0.255955	  0.451429	
2.647	  0.496412	  0.524700	  0.222055	  0.294721	  0.116549	  0.437146	  0.325620	  0.171115	  0.158979	  0.120581	  0.136763	  0.186306	  0.277663	  0.290105	  0.254773	  0.450160	
2.6475	  0.498444	  0.528085	  0.224637	  0.293449	  0.117400	  0.439159	  0.323501	  0.169074	  0.157218	  0.120631	  0.138222	  0.186106	  0.277375	  0.290829	  0.253570	  0.448856	
2.648	  0.500416	  0.531425	  0.227203	  0.292244	  0.118253	  0.441142	  0.321476	  0.167067	  0.155492	  0.120710	  0.139680	  0.185858	  0.277025	  0.291543	  0.252347	  0.447517	
2.6485	  0.502325	  0.534720	  0.229752	  0.291107	  0.119110	  0.443094	  0.319548	  0.165092	  0.153802	  0.120816	  0.141135	  0.185561	  0.276613	  0.292246	  0.251104	  0.446143	
2.649	  0.504169	  0.537967	  0.232283	  0.290037	  0.119970	  0.445012	  0.317716	  0.163150	  0.152149	  0.120950	  0.142589	  0.185216	  0.276139	  0.292937	  0.249840	  0.444737	
2.6495	  0.505946	  0.541162	  0.234793	  0.289034	  0.120834	  0.446897	  0.315982	  0.161241	  0.150533	  0.121114	  0.144041	  0.184822	  0.275605	  0.293616	  0.248557	  0.443297	
2.65	  0.507653	  0.544305	  0.237283	  0.288095	  0.121701	  0.448747	  0.314345	  0.159366	  0.148954	  0.121307	  0.145492	  0.184380	  0.275011	  0.294283	  0.247254	  0.441827	
2.6505	  0.509289	  0.547391	  0.239749	  0.287222	  0.122571	  0.450562	  0.312807	  0.157525	  0.147412	  0.121530	  0.146940	  0.183889	  0.274357	  0.294937	  0.245932	  0.440325	
2.651	  0.510852	  0.550418	  0.242191	  0.286412	  0.123445	  0.452339	  0.311368	  0.155719	  0.145909	  0.121784	  0.148387	  0.183351	  0.273644	  0.295578	  0.244591	  0.438792	
2.6515	  0.512340	  0.553383	  0.244607	  0.285665	  0.124321	  0.454078	  0.310027	  0.153947	  0.144444	  0.122069	  0.149833	  0.182766	  0.272873	  0.296205	  0.243232	  0.437230	
2.652	  0.513750	  0.556282	  0.246995	  0.284981	  0.125201	  0.455779	  0.308785	  0.152210	  0.143018	  0.122386	  0.151276	  0.182133	  0.272045	  0.296818	  0.241856	  0.435638	
2.6525	  0.515082	  0.559114	  0.249356	  0.284358	  0.126084	  0.457439	  0.307642	  0.150509	  0.141631	  0.122734	  0.152718	  0.181455	  0.271161	  0.297416	  0.240463	  0.434017	
2.653	  0.516332	  0.561874	  0.251687	  0.283796	  0.126970	  0.459059	  0.306599	  0.148844	  0.140283	  0.123115	  0.154158	  0.180732	  0.270221	  0.298000	  0.239054	  0.432367	
2.6535	  0.517500	  0.564560	  0.253988	  0.283294	  0.127859	  0.460637	  0.305655	  0.147216	  0.138975	  0.123529	  0.155596	  0.179964	  0.269228	  0.298567	  0.237631	  0.430688	
2.654	  0.518582	  0.567169	  0.256256	  0.282851	  0.128751	  0.462173	  0.304810	  0.145624	  0.137706	  0.123975	  0.157032	  0.179154	  0.268183	  0.299119	  0.236193	  0.428980	
2.6545	  0.519578	  0.569698	  0.258492	  0.282466	  0.129645	  0.463665	  0.304063	  0.144069	  0.136478	  0.124455	  0.158466	  0.178300	  0.267087	  0.299654	  0.234742	  0.427243	
2.655	  0.520483	  0.572145	  0.260694	  0.282140	  0.130542	  0.465114	  0.303415	  0.142552	  0.135290	  0.124969	  0.159898	  0.177405	  0.265941	  0.300172	  0.233278	  0.425478	
2.6555	  0.521297	  0.574506	  0.262860	  0.281870	  0.131442	  0.466519	  0.302865	  0.141072	  0.134142	  0.125517	  0.161328	  0.176468	  0.264749	  0.300673	  0.231802	  0.423684	
2.656	  0.522016	  0.576778	  0.264990	  0.281658	  0.132343	  0.467878	  0.302413	  0.139631	  0.133035	  0.126099	  0.162756	  0.175492	  0.263510	  0.301155	  0.230314	  0.421862	
2.6565	  0.522640	  0.578960	  0.267082	  0.281501	  0.133247	  0.469192	  0.302058	  0.138228	  0.131968	  0.126715	  0.164181	  0.174476	  0.262227	  0.301619	  0.228815	  0.420012	
2.657	  0.523166	  0.581047	  0.269135	  0.281400	  0.134152	  0.470460	  0.301799	  0.136865	  0.130943	  0.127366	  0.165604	  0.173422	  0.260903	  0.302064	  0.227307	  0.418135	
2.6575	  0.523592	  0.583039	  0.271150	  0.281354	  0.135060	  0.471679	  0.301636	  0.135540	  0.129958	  0.128052	  0.167023	  0.172330	  0.259537	  0.302489	  0.225789	  0.416232	
2.658	  0.523919	  0.584933	  0.273124	  0.281362	  0.135969	  0.472851	  0.301568	  0.134256	  0.129014	  0.128773	  0.168440	  0.171201	  0.258133	  0.302894	  0.224263	  0.414302	
2.6585	  0.524145	  0.586727	  0.275056	  0.281424	  0.136879	  0.473974	  0.301594	  0.133011	  0.128111	  0.129529	  0.169853	  0.170035	  0.256693	  0.303279	  0.222729	  0.412347	
2.659	  0.524272	  0.588420	  0.276947	  0.281539	  0.137791	  0.475047	  0.301714	  0.131807	  0.127249	  0.130320	  0.171263	  0.168835	  0.255217	  0.303644	  0.221190	  0.410367	
2.6595	  0.524300	  0.590011	  0.278796	  0.281705	  0.138703	  0.476070	  0.301925	  0.130643	  0.126429	  0.131147	  0.172668	  0.167600	  0.253707	  0.303987	  0.219644	  0.408361	
2.66	  0.524229	  0.591499	  0.280602	  0.281924	  0.139617	  0.477043	  0.302227	  0.129519	  0.125649	  0.132008	  0.174070	  0.166333	  0.252167	  0.304309	  0.218094	  0.406331	
2.6605	  0.524061	  0.592882	  0.282365	  0.282195	  0.140532	  0.477967	  0.302620	  0.128437	  0.124910	  0.132905	  0.175467	  0.165034	  0.250596	  0.304609	  0.216541	  0.404277	
2.661	  0.523796	  0.594160	  0.284083	  0.282516	  0.141447	  0.478840	  0.303101	  0.127395	  0.124213	  0.133837	  0.176860	  0.163705	  0.248996	  0.304888	  0.214986	  0.402198	
2.6615	  0.523435	  0.595331	  0.285757	  0.282889	  0.142362	  0.479665	  0.303669	  0.126395	  0.123556	  0.134805	  0.178247	  0.162346	  0.247370	  0.305144	  0.213429	  0.400095	
2.662	  0.522979	  0.596395	  0.287386	  0.283314	  0.143278	  0.480441	  0.304324	  0.125435	  0.122939	  0.135808	  0.179629	  0.160960	  0.245718	  0.305378	  0.211872	  0.397970	
2.6625	  0.522428	  0.597350	  0.288971	  0.283790	  0.144194	  0.481169	  0.305063	  0.124518	  0.122364	  0.136847	  0.181005	  0.159548	  0.244041	  0.305588	  0.210317	  0.395821	
2.663	  0.521784	  0.598195	  0.290511	  0.284317	  0.145110	  0.481849	  0.305885	  0.123641	  0.121828	  0.137922	  0.182374	  0.158111	  0.242342	  0.305776	  0.208763	  0.393651	
2.6635	  0.521048	  0.598929	  0.292006	  0.284897	  0.146025	  0.482482	  0.306789	  0.122806	  0.121333	  0.139033	  0.183736	  0.156650	  0.240622	  0.305939	  0.207213	  0.391459	
2.664	  0.520221	  0.599553	  0.293455	  0.285528	  0.146940	  0.483068	  0.307772	  0.122013	  0.120878	  0.140180	  0.185091	  0.155167	  0.238880	  0.306079	  0.205667	  0.389247	
2.6645	  0.519305	  0.600065	  0.294859	  0.286212	  0.147854	  0.483608	  0.308833	  0.121261	  0.120462	  0.141362	  0.186438	  0.153664	  0.237120	  0.306194	  0.204127	  0.387016	
2.665	  0.518301	  0.600466	  0.296218	  0.286948	  0.148766	  0.484101	  0.309970	  0.120551	  0.120086	  0.142581	  0.187777	  0.152141	  0.235341	  0.306284	  0.202592	  0.384766	
2.6655	  0.517212	  0.600756	  0.297531	  0.287737	  0.149677	  0.484549	  0.311181	  0.119882	  0.119750	  0.143836	  0.189107	  0.150600	  0.233545	  0.306350	  0.201065	  0.382498	
2.666	  0.516038	  0.600935	  0.298798	  0.288578	  0.150587	  0.484952	  0.312464	  0.119254	  0.119454	  0.145126	  0.190427	  0.149041	  0.231732	  0.306390	  0.199545	  0.380213	
